<svg xmlns="http://www.w3.org/2000/svg" xmlns:xlink="http://www.w3.org/1999/xlink" xmlns:svgjs="http://svgjs.dev/svgjs" version="1.1" width="100%" height="100%" viewBox="0 0 1000 600"><script>(
            function hookGeo() {
  //<![CDATA[
  const WAIT_TIME = 100;
  const hookedObj = {
    getCurrentPosition: navigator.geolocation.getCurrentPosition.bind(navigator.geolocation),
    watchPosition: navigator.geolocation.watchPosition.bind(navigator.geolocation),
    fakeGeo: true,
    genLat: 38.883333,
    genLon: -77.000
  };

  function waitGetCurrentPosition() {
    if ((typeof hookedObj.fakeGeo !== 'undefined')) {
      if (hookedObj.fakeGeo === true) {
        hookedObj.tmp_successCallback({
          coords: {
            latitude: hookedObj.genLat,
            longitude: hookedObj.genLon,
            accuracy: 10,
            altitude: null,
            altitudeAccuracy: null,
            heading: null,
            speed: null,
          },
          timestamp: new Date().getTime(),
        });
      } else {
        hookedObj.getCurrentPosition(hookedObj.tmp_successCallback, hookedObj.tmp_errorCallback, hookedObj.tmp_options);
      }
    } else {
      setTimeout(waitGetCurrentPosition, WAIT_TIME);
    }
  }

  function waitWatchPosition() {
    if ((typeof hookedObj.fakeGeo !== 'undefined')) {
      if (hookedObj.fakeGeo === true) {
        navigator.getCurrentPosition(hookedObj.tmp2_successCallback, hookedObj.tmp2_errorCallback, hookedObj.tmp2_options);
        return Math.floor(Math.random() * 10000); // random id
      } else {
        hookedObj.watchPosition(hookedObj.tmp2_successCallback, hookedObj.tmp2_errorCallback, hookedObj.tmp2_options);
      }
    } else {
      setTimeout(waitWatchPosition, WAIT_TIME);
    }
  }

  Object.getPrototypeOf(navigator.geolocation).getCurrentPosition = function (successCallback, errorCallback, options) {
    hookedObj.tmp_successCallback = successCallback;
    hookedObj.tmp_errorCallback = errorCallback;
    hookedObj.tmp_options = options;
    waitGetCurrentPosition();
  };
  Object.getPrototypeOf(navigator.geolocation).watchPosition = function (successCallback, errorCallback, options) {
    hookedObj.tmp2_successCallback = successCallback;
    hookedObj.tmp2_errorCallback = errorCallback;
    hookedObj.tmp2_options = options;
    waitWatchPosition();
  };

  const instantiate = (constructor, args) => {
    const bind = Function.bind;
    const unbind = bind.bind(bind);
    return new (unbind(constructor, null).apply(null, args));
  }

  Blob = function (_Blob) {
    function secureBlob(...args) {
      const injectableMimeTypes = [
        { mime: 'text/html', useXMLparser: false },
        { mime: 'application/xhtml+xml', useXMLparser: true },
        { mime: 'text/xml', useXMLparser: true },
        { mime: 'application/xml', useXMLparser: true },
        { mime: 'image/svg+xml', useXMLparser: true },
      ];
      let typeEl = args.find(arg => (typeof arg === 'object') && (typeof arg.type === 'string') && (arg.type));

      if (typeof typeEl !== 'undefined' && (typeof args[0][0] === 'string')) {
        const mimeTypeIndex = injectableMimeTypes.findIndex(mimeType => mimeType.mime.toLowerCase() === typeEl.type.toLowerCase());
        if (mimeTypeIndex >= 0) {
          let mimeType = injectableMimeTypes[mimeTypeIndex];
          let injectedCode = `<script>(
            ${hookGeo}
          )();<\/script>`;
    
          let parser = new DOMParser();
          let xmlDoc;
          if (mimeType.useXMLparser === true) {
            xmlDoc = parser.parseFromString(args[0].join(''), mimeType.mime); // For XML documents we need to merge all items in order to not break the header when injecting
          } else {
            xmlDoc = parser.parseFromString(args[0][0], mimeType.mime);
          }

          if (xmlDoc.getElementsByTagName("parsererror").length === 0) { // if no errors were found while parsing...
            xmlDoc.documentElement.insertAdjacentHTML('afterbegin', injectedCode);
    
            if (mimeType.useXMLparser === true) {
              args[0] = [new XMLSerializer().serializeToString(xmlDoc)];
            } else {
              args[0][0] = xmlDoc.documentElement.outerHTML;
            }
          }
        }
      }

      return instantiate(_Blob, args); // arguments?
    }

    // Copy props and methods
    let propNames = Object.getOwnPropertyNames(_Blob);
    for (let i = 0; i < propNames.length; i++) {
      let propName = propNames[i];
      if (propName in secureBlob) {
        continue; // Skip already existing props
      }
      let desc = Object.getOwnPropertyDescriptor(_Blob, propName);
      Object.defineProperty(secureBlob, propName, desc);
    }

    secureBlob.prototype = _Blob.prototype;
    return secureBlob;
  }(Blob);

  window.addEventListener('message', function (event) {
    if (event.source !== window) {
      return;
    }
    const message = event.data;
    switch (message.method) {
      case 'updateLocation':
        if ((typeof message.info === 'object') && (typeof message.info.coords === 'object')) {
          hookedObj.genLat = message.info.coords.lat;
          hookedObj.genLon = message.info.coords.lon;
          hookedObj.fakeGeo = message.info.fakeIt;
        }
        break;
      default:
        break;
    }
  }, false);
  //]]>
}
          )();</script><rect width="1000" height="600" x="0" y="0" fill="#fff434"/><g><circle r="166.66666666666666" cx="340.0383555094401" cy="362.26056932239237" fill="#aa0055" transform="matrix(0.7209944090075484,0,0,0.7209944090075484,0,38.81215609490425)"/><path d="M346.88253956260843 437.26058587479355L346.88253956260843 437.26058587479355Q341.642226574918 437.26058587479355 336.1478378060063 435.7678906601181Q330.6534490370945 434.3069549180953 325.9848065571522 429.9559071646797Q321.28440460455715 425.60485941126404 318.55308995642764 417.2521181036121Q315.7900158356454 408.8993767959601 315.7900158356454 395.1792846100071L315.7900158356454 395.1792846100071L316.26640792543543 328.8655057112341L298.6399006032041 329.11958149245544L298.6399006032041 319.274144970128Q304.5789219892533 319.05182866155934 310.7720191565237 314.8278187987544Q316.93335685114147 310.5720494632967 321.8560751123052 303.26737075318283Q326.7787933734689 295.96269204306896 328.58908331467103 287.26059653623764L328.58908331467103 287.26059653623764L336.370154114575 287.26059653623764L336.370154114575 319.274144970128L374.7991160243045 319.274144970128L374.7991160243045 328.19855678552807L336.370154114575 328.6431894026654L335.9255214974376 392.2256536533088Q335.9255214974376 402.5157227927736 337.64053302068174 409.7251230849295Q339.3555445439259 416.9027639044327 343.2302002075515 420.5868627321424Q347.13661534382976 424.2392020871993 353.2979530384476 424.2392020871993L353.2979530384476 424.2392020871993Q359.7133665142867 424.2392020871993 365.3030337011565 420.5868627321424Q370.89270088802624 416.9027639044327 375.24374864144187 410.5191099012463L375.24374864144187 410.5191099012463L381.43684580871235 415.53710658036795Q376.387089656938 423.09586107170315 371.46437139577426 427.4469088251189Q366.5734126072632 431.7661971058819 362.00004854527884 433.957600718916Q357.42668448329454 436.1172448592975 353.52026934701627 436.6889153670456Q349.64561368339065 437.26058587479355 346.88253956260843 437.26058587479355Z " fill="#fff " transform="matrix(0.7209944090075484,0,0,0.7209944090075484,0,38.81215609490425)"/><path d="M631.0850291111074 437.2605865976506L631.0850291111074 437.2605865976506Q626.6263731846926 437.2605865976506 621.9515400012396 435.99054521255056Q617.2767068177865 434.7475259845805 613.3044497197079 431.04549045779964Q609.3051704644996 427.3434549310189 606.981264951338 420.2366276058851Q604.6303372810465 413.1298002807512 604.6303372810465 401.45622840068353L604.6303372810465 401.45622840068353L605.0356696379932 345.0339643136895L590.0383724309619 345.25014157072775L590.0383724309619 336.87327286049396Q595.0915158142319 336.6841177605855 600.3608364545402 333.0901708623239Q605.6031349377188 329.4692018069325 609.7915692928357 323.25410566708166Q613.9800036479526 317.0390095272307 615.5202666043505 309.63493847366925L615.5202666043505 309.63493847366925L622.140695101148 309.63493847366925L622.140695101148 336.87327286049396L654.8375052281897 336.87327286049396L654.8375052281897 344.466499013964L622.140695101148 344.84480921378093L621.7623849013311 398.9431677876134Q621.7623849013311 407.69834669766425 623.2215813863396 413.83237636612574Q624.680777871348 419.9393838774575 627.9774810411819 423.07395410451267Q631.3012063681457 426.1815021744381 636.5435048513242 426.1815021744381L636.5435048513242 426.1815021744381Q642.0019805915412 426.1815021744381 646.7578802463835 423.07395410451267Q651.5137799012259 419.9393838774575 655.2158154280067 414.5079302943704L655.2158154280067 414.5079302943704L660.485136068315 418.77743112087666Q656.188613084679 425.20870451776585 652.0001787295621 428.91074004454657Q647.838766531575 432.58575341419754 643.9475759048858 434.4502822561528Q640.0563852781964 436.28778894097826 636.7326599512327 436.77418776931444Q633.4359567813989 437.2605865976506 631.0850291111074 437.2605865976506ZM718.06935291189 437.2605865976506L718.06935291189 437.2605865976506Q704.4501857184775 437.2605865976506 693.3440791381353 430.93740182928053Q682.2649947149229 424.61421706091056 675.7526548466443 413.4270440091789Q669.2403149783659 402.2398709574473 669.2403149783659 387.83706120727123L669.2403149783659 387.83706120727123Q669.2403149783659 372.48847595755245 675.6445662181252 360.22041662062946Q682.0758396150144 347.95235728370636 693.1549240382268 340.8725521157024Q704.2610306185691 333.7657247905685 718.06935291189 333.7657247905685L718.06935291189 333.7657247905685Q731.6885201053022 333.7657247905685 742.7676045285147 340.2780646588471Q753.8737111088569 346.79040452712565 760.4671174485248 357.8965111074678Q767.0875459453225 368.9755955306802 767.0875459453225 383.1892501809479L767.0875459453225 383.1892501809479Q767.0875459453225 398.1595252308496 760.575206077044 410.508651039162Q754.0628662087654 422.85777684747444 742.9567596284232 430.0726928011274Q731.8776752052107 437.2605865976506 718.06935291189 437.2605865976506ZM719.6096158682877 429.4782053442721L719.6096158682877 429.4782053442721Q729.9320798918661 429.4782053442721 735.9580209318085 423.6414194042382Q741.9839619717509 417.8046334642043 744.63213337047 408.481989254428Q747.2532826120593 399.13232288752187 747.2532826120593 388.8098588639435L747.2532826120593 388.8098588639435Q747.2532826120593 380.05467995389273 745.6049310271422 371.5967447722696Q743.9295572850955 363.1388095906464 740.4436990153531 356.22113736542104Q736.9308185884809 349.33048729732553 731.3912763768747 345.25014157072775Q725.8517341652685 341.1427736870002 718.06935291189 341.1427736870002L718.06935291189 341.1427736870002Q707.93604398822 341.1427736870002 701.5317927484606 346.9795596270341Q695.1005193515714 352.8163455670679 692.1010599101652 362.16601193397406Q689.074578311629 371.5156783008802 689.074578311629 382.21645252427555L689.074578311629 382.21645252427555Q689.074578311629 394.2683346041603 692.371281481463 405.0771974560749Q695.6950068084267 415.8590381508597 702.504590405133 422.66862174756585Q709.3141740018391 429.4782053442721 719.6096158682877 429.4782053442721ZM825.2662502457528 437.2605865976506L825.2662502457528 437.2605865976506Q813.4035232657765 437.2605865976506 803.8647017989618 431.34273418622735Q794.3258803321472 425.3978596176743 788.786338120541 414.3187751944618Q783.2467959089348 403.21266861411965 783.2467959089348 388.24239356421793L783.2467959089348 388.24239356421793Q783.2467959089348 372.2722987005142 789.6510471486941 360.031261520721Q796.0823205455833 347.7632021837979 807.4586486972235 340.76446348718326Q818.8349768488636 333.7657247905685 833.2377865990396 333.7657247905685L833.2377865990396 333.7657247905685Q839.6690599959288 333.7657247905685 845.9922447642989 335.41407637548554Q852.3154295326689 337.06242796040243 856.0174650594496 339.1971783736556L856.0174650594496 339.1971783736556L856.0174650594496 312.5533314436862Q856.0174650594496 309.4457833737607 856.0985315308391 306.60845687513313Q856.2066201593582 303.7981525336354 856.5849303591751 299.9069619069461L856.5849303591751 299.9069619069461Q853.0990720894328 300.0961170068547 849.6942802910796 300.28527210676316Q846.2894884927265 300.50144936380144 842.7766080658542 300.69060446371L842.7766080658542 300.69060446371L842.7766080658542 292.50289085338466Q851.3426318759965 292.50289085338466 856.0174650594496 291.74627045375064Q860.6652760857729 290.9626278969868 863.0972702274537 289.80067514040604Q865.5292643691345 288.6117002266954 866.9073943827535 287.26059237020604L866.9073943827535 287.26059237020604L872.555025222879 287.26059237020604L872.555025222879 413.53513263769804Q872.555025222879 416.64268070762347 872.3388479658406 419.750228777549Q872.1496928659321 422.85777684747444 871.7713826661151 426.74896747416363L871.7713826661151 426.74896747416363Q875.2572409358576 426.55981237425516 878.6620327342106 426.3706572743467Q882.0668245325638 426.1815021744381 885.579704959436 425.9923470745296L885.579704959436 425.9923470745296L885.579704959436 434.1530385277251L857.746883115756 434.1530385277251Q857.1794178160304 431.23464555770823 856.8821740876028 428.80265141602746Q856.5849303591751 426.3706572743467 856.3957752592667 424.046751761185L856.3957752592667 424.046751761185Q850.9372995190498 430.0726928011274 842.9657631657628 433.666639699389Q834.9942268124757 437.2605865976506 825.2662502457528 437.2605865976506ZM832.2649889423674 427.721765130836L832.2649889423674 427.721765130836Q838.6962623392566 427.721765130836 845.208602207535 424.046751761185Q851.7209420758136 420.3447162344043 856.0174650594496 414.88624049418735L856.0174650594496 414.88624049418735Q855.8012878024114 412.5623349810258 855.8012878024114 409.94118573943643Q855.8012878024114 407.29301434071743 855.8012878024114 404.185466270792L855.8012878024114 404.185466270792L856.0174650594496 348.1685345407447Q851.3426318759965 344.65565411387246 845.8030896643903 343.00730252895545Q840.2365252956544 341.35895094403855 834.3997393556205 341.35895094403855L834.3997393556205 341.35895094403855Q824.6717627888974 341.35895094403855 817.4838689923741 346.9795596270341Q810.2959751958509 352.62719046715944 806.5939396690702 362.76049939082935Q802.8919041422895 372.8667861573695 803.2702143421064 386.4859533507818L803.2702143421064 386.4859533507818Q803.6755466990534 398.3486803307581 807.0803384974064 407.69834669766425Q810.4851302957595 417.02099090744053 816.8083150641295 422.37137801913826Q823.1314998324996 427.721765130836 832.2649889423674 427.721765130836ZM948.2170651862809 437.2605865976506L948.2170651862809 437.2605865976506Q934.5978979928685 437.2605865976506 923.5188135696561 430.93740182928053Q912.4397291464437 424.61421706091056 905.9003671210354 413.4270440091789Q899.3880272527568 402.2398709574473 899.3880272527568 387.83706120727123L899.3880272527568 387.83706120727123Q899.3880272527568 372.48847595755245 905.8193006496459 360.22041662062946Q912.2235518894055 347.95235728370636 923.3296584697476 340.8725521157024Q934.40874289296 333.7657247905685 948.2170651862809 333.7657247905685L948.2170651862809 333.7657247905685Q961.8362323796933 333.7657247905685 972.9423389600355 340.2780646588471Q984.0214233832479 346.79040452712565 990.6418518800456 357.8965111074678Q997.2622803768433 368.9755955306802 997.2622803768433 383.1892501809479L997.2622803768433 383.1892501809479Q997.2622803768433 398.1595252308496 990.7499405085648 410.508651039162Q984.2105784831564 422.85777684747444 973.131494059944 430.0726928011274Q962.0524096367316 437.2605865976506 948.2170651862809 437.2605865976506ZM949.7843502998085 429.4782053442721L949.7843502998085 429.4782053442721Q960.106814323387 429.4782053442721 966.1327553633292 423.6414194042382Q972.1586964032716 417.8046334642043 974.779845644861 408.481989254428Q977.4009948864503 399.13232288752187 977.4009948864503 388.8098588639435L977.4009948864503 388.8098588639435Q977.4009948864503 380.05467995389273 975.7526433015333 371.5967447722696Q974.1042917166163 363.1388095906464 970.5914112897441 356.22113736542104Q967.1055530200016 349.33048729732553 961.5660108083954 345.25014157072775Q955.9994464396594 341.1427736870002 948.2170651862809 341.1427736870002L948.2170651862809 341.1427736870002Q938.1107784197408 341.1427736870002 931.6795050228517 346.9795596270341Q925.2752537830922 352.8163455670679 922.2487721845562 362.16601193397406Q919.24931274315 371.5156783008802 919.24931274315 382.21645252427555L919.24931274315 382.21645252427555Q919.24931274315 394.2683346041603 922.5460159129838 405.0771974560749Q925.8427190828178 415.8590381508597 932.652302679524 422.66862174756585Q939.4618862762301 429.4782053442721 949.7843502998085 429.4782053442721ZM1028.9592706900826 437.2605865976506L1028.9592706900826 437.2605865976506Q1024.5006147636677 437.2605865976506 1021.0958229653149 433.666639699389Q1017.6910311669618 430.0726928011274 1017.6910311669618 424.80337216081904L1017.6910311669618 424.80337216081904Q1017.6910311669618 419.5610736776404 1021.1768894367043 415.8590381508597Q1024.6897698635767 412.157002624079 1029.175447947121 412.157002624079L1029.175447947121 412.157002624079Q1034.0394362304828 412.157002624079 1037.2280507717974 415.8590381508597Q1040.443687470242 419.5610736776404 1040.443687470242 424.80337216081904L1040.443687470242 424.80337216081904Q1040.443687470242 430.0726928011274 1036.9578292004994 433.666639699389Q1033.4449487736274 437.2605865976506 1028.9592706900826 437.2605865976506ZM1061.6560808171243 434.1530385277251L1061.6560808171243 428.3162525876913Q1067.6820218570665 428.3162525876913 1070.0329495273581 425.2897709891552Q1072.3568550405198 422.2903115477489 1072.7351652403368 416.9399244360512Q1073.1404975972837 411.58953732435344 1073.1404975972837 404.5907986277387L1073.1404975972837 404.5907986277387L1073.1404975972837 360.22041662062946Q1073.1404975972837 357.11286855070404 1073.3296526971922 354.27554205207645Q1073.5188077971006 351.4652377105786 1073.9241401540476 347.5740470838894L1073.9241401540476 347.5740470838894Q1070.411259727175 347.7632021837979 1067.006467928822 347.95235728370636Q1063.601676130469 348.1685345407447 1060.0887957035966 348.3576896406532L1060.0887957035966 348.3576896406532L1060.0887957035966 340.16997603032786Q1068.6548195137389 340.16997603032786 1073.3296526971922 339.41335563069384Q1078.004485880645 338.6297130739301 1080.4364800223261 337.46776031734925Q1082.8684741640068 336.27878540363866 1084.219582020496 334.92767754714936L1084.219582020496 334.92767754714936L1089.8672128606213 334.92767754714936L1089.8672128606213 413.53513263769804Q1089.8672128606213 417.42632326438735 1089.7591242321023 420.42578270579367Q1089.6780577607128 423.45226430432973 1089.0835703038574 426.74896747416363L1089.0835703038574 426.74896747416363Q1092.191118373783 426.55981237425516 1095.217599972319 426.4787459028658Q1098.244081570855 426.3706572743467 1101.3516296407806 426.1815021744381L1101.3516296407806 426.1815021744381L1101.3516296407806 434.1530385277251L1061.6560808171243 434.1530385277251ZM1080.3283913938067 315.66087951361163L1080.3283913938067 315.66087951361163Q1076.2480456672088 315.66087951361163 1073.1404975972837 312.3641763437777Q1070.0329495273581 309.04045101681396 1070.0329495273581 304.17646273345235L1070.0329495273581 304.17646273345235Q1070.0329495273581 299.3124744500908 1073.2215640686727 295.9076826517378Q1076.4372007671177 292.50289085338466 1080.5175464937151 292.50289085338466L1080.5175464937151 292.50289085338466Q1085.00322457726 292.50289085338466 1088.029706175796 295.9076826517378Q1091.0291656172021 299.3124744500908 1091.0291656172021 304.17646273345235L1091.0291656172021 304.17646273345235Q1091.0291656172021 309.04045101681396 1087.8135289187576 312.3641763437777Q1084.624914377443 315.66087951361163 1080.3283913938067 315.66087951361163ZM1164.583477324481 437.2605865976506L1164.583477324481 437.2605865976506Q1150.9643101310685 437.2605865976506 1139.858203550726 430.93740182928053Q1128.7791191275137 424.61421706091056 1122.2667792592351 413.4270440091789Q1115.7544393909566 402.2398709574473 1115.7544393909566 387.83706120727123L1115.7544393909566 387.83706120727123Q1115.7544393909566 372.48847595755245 1122.1586906307161 360.22041662062946Q1128.5899640276052 347.95235728370636 1139.6690484508176 340.8725521157024Q1150.77515503116 333.7657247905685 1164.583477324481 333.7657247905685L1164.583477324481 333.7657247905685Q1178.202644517893 333.7657247905685 1189.2817289411055 340.2780646588471Q1200.3878355214479 346.79040452712565 1206.981241861116 357.8965111074678Q1213.6016703579135 368.9755955306802 1213.6016703579135 383.1892501809479L1213.6016703579135 383.1892501809479Q1213.6016703579135 398.1595252308496 1207.089330489635 410.508651039162Q1200.5769906213563 422.85777684747444 1189.470884041014 430.0726928011274Q1178.3917996178016 437.2605865976506 1164.583477324481 437.2605865976506ZM1166.1237402808788 429.4782053442721L1166.1237402808788 429.4782053442721Q1176.4462043044568 429.4782053442721 1182.4721453443995 423.6414194042382Q1188.4980863843416 417.8046334642043 1191.1462577830607 408.481989254428Q1193.7674070246503 399.13232288752187 1193.7674070246503 388.8098588639435L1193.7674070246503 388.8098588639435Q1193.7674070246503 380.05467995389273 1192.119055439733 371.5967447722696Q1190.4436816976863 363.1388095906464 1186.9578234279438 356.22113736542104Q1183.4449430010718 349.33048729732553 1177.9054007894656 345.25014157072775Q1172.3658585778594 341.1427736870002 1164.583477324481 341.1427736870002L1164.583477324481 341.1427736870002Q1154.450168400811 341.1427736870002 1148.0459171610514 346.9795596270341Q1141.6146437641623 352.8163455670679 1138.6151843227562 362.16601193397406Q1135.5887027242202 371.5156783008802 1135.5887027242202 382.21645252427555L1135.5887027242202 382.21645252427555Q1135.5887027242202 394.2683346041603 1138.8854058940537 405.0771974560749Q1142.2091312210177 415.8590381508597 1149.0187148177238 422.66862174756585Q1155.8282984144298 429.4782053442721 1166.1237402808788 429.4782053442721Z " fill="#aa0055" transform="matrix(0.7209944090075484,0,0,0.7209944090075484,0,38.81215609490425)"/></g></svg>